<svg width="24" height="24" viewBox="0 0 24 24" fill="none" xmlns="http://www.w3.org/2000/svg">
<path d="M6.32561 16.746C5.93508 16.3555 5.93508 15.7223 6.32561 15.3318L15.3631 6.29289C15.7536 5.90237 16.3868 5.90237 16.7773 6.29289C17.1679 6.68342 17.1679 7.31658 16.7773 7.70711L7.73982 16.746C7.3493 17.1365 6.71613 17.1365 6.32561 16.746Z" fill="currentColor"/>
<path d="M16.6836 16.6835C17.0741 16.293 17.0741 15.6599 16.6836 15.2693L12.1953 10.7811L7.70711 6.29289C7.31658 5.90237 6.68342 5.90237 6.29289 6.29289C5.90237 6.68342 5.90237 7.31658 6.29289 7.70711L15.2693 16.6835C15.6599 17.0741 16.293 17.0741 16.6836 16.6835Z" fill="currentColor"/>
</svg>
