<svg width="24" height="24" viewBox="0 0 24 24" fill="none" xmlns="http://www.w3.org/2000/svg">
<path d="M12.6959 18.7086C12.3047 19.0991 11.6704 19.0991 11.2792 18.7086L8.29341 15.7296C7.9022 15.339 7.9022 14.7059 8.29341 14.3153C8.68462 13.9248 9.3189 13.9248 9.71011 14.3153L12.6959 17.2944C13.0872 17.6849 13.0872 18.318 12.6959 18.7086Z" fill="currentColor"/>
<path d="M11.3038 18.7086C11.6951 19.0991 12.3293 19.0991 12.7206 18.7086L15.7066 15.7296C16.0978 15.339 16.0978 14.7059 15.7066 14.3153C15.3154 13.9248 14.6811 13.9248 14.2899 14.3153L11.3038 17.2944C10.9126 17.6849 10.9126 18.318 11.3038 18.7086Z" fill="currentColor"/>
<path d="M11.9876 18.0157C11.4343 18.0157 10.9858 17.5679 10.9858 17.0157V7C10.9858 6.44772 11.4343 6 11.9876 6C12.5408 6 12.9894 6.44772 12.9894 7V17.0157C12.9894 17.5679 12.5408 18.0157 11.9876 18.0157Z" fill="currentColor"/>
<path d="M12.6959 4.29289C12.3047 3.90237 11.6704 3.90237 11.2792 4.29289L8.29341 7.27191C7.9022 7.66243 7.9022 8.2956 8.29341 8.68612C8.68462 9.07664 9.3189 9.07664 9.71011 8.68612L12.6959 5.70711C13.0872 5.31658 13.0872 4.68342 12.6959 4.29289Z" fill="currentColor"/>
<path d="M11.3038 4.29289C11.6951 3.90237 12.3293 3.90237 12.7206 4.29289L15.7066 7.27191C16.0978 7.66243 16.0978 8.2956 15.7066 8.68612C15.3154 9.07664 14.6811 9.07664 14.2899 8.68612L11.3038 5.70711C10.9126 5.31658 10.9126 4.68342 11.3038 4.29289Z" fill="currentColor"/>
</svg>
