<svg width="24" height="24" viewBox="0 0 24 24" fill="none" xmlns="http://www.w3.org/2000/svg">
<path d="M14.3394 6.62805L13.6323 5.92095L13.6323 5.92095L14.3394 6.62805ZM15.8557 6L15.8557 5L15.8557 6ZM18 8.14431L19 8.14431L18 8.14431ZM17.3719 9.66057L16.6648 8.95346L16.6648 8.95346L17.3719 9.66057ZM10.1697 16.8628L10.4328 17.8276C10.6007 17.7818 10.7538 17.693 10.8768 17.5699L10.1697 16.8628ZM6 18L5.03524 17.7369C4.94081 18.0831 5.03914 18.4534 5.29289 18.7071C5.54664 18.9609 5.9169 19.0592 6.26312 18.9648L6 18ZM7.13719 13.8303L6.43009 13.1232C6.30703 13.2463 6.21822 13.3993 6.17243 13.5672L7.13719 13.8303ZM15.0465 7.33516C15.1528 7.2289 15.2789 7.14461 15.4178 7.08711L14.6524 5.23935C14.2709 5.39736 13.9243 5.62897 13.6323 5.92095L15.0465 7.33516ZM15.4178 7.08711C15.5566 7.0296 15.7054 7 15.8557 7L15.8557 5C15.4428 5 15.0339 5.08133 14.6524 5.23935L15.4178 7.08711ZM15.8557 7C16.006 7 16.1548 7.0296 16.2936 7.08711L17.059 5.23935C16.6775 5.08133 16.2686 5 15.8557 5L15.8557 7ZM16.2936 7.08711C16.4324 7.14461 16.5586 7.2289 16.6648 7.33516L18.0791 5.92095C17.7871 5.62897 17.4404 5.39736 17.059 5.23935L16.2936 7.08711ZM16.6648 7.33516C16.7711 7.44142 16.8554 7.56757 16.9129 7.7064L18.7607 6.94103C18.6026 6.55955 18.371 6.21292 18.0791 5.92095L16.6648 7.33516ZM16.9129 7.7064C16.9704 7.84523 17 7.99403 17 8.14431L19 8.14431C19 7.7314 18.9187 7.32252 18.7607 6.94103L16.9129 7.7064ZM17 8.14431C17 8.29459 16.9704 8.44339 16.9129 8.58222L18.7607 9.34759C18.9187 8.9661 19 8.55722 19 8.14431L17 8.14431ZM16.9129 8.58222C16.8554 8.72105 16.7711 8.8472 16.6648 8.95346L18.0791 10.3677C18.371 10.0757 18.6026 9.72907 18.7607 9.34759L16.9129 8.58222ZM16.6648 8.95346L9.46261 16.1557L10.8768 17.5699L18.0791 10.3677L16.6648 8.95346ZM9.9066 15.898L5.73688 17.0352L6.26312 18.9648L10.4328 17.8276L9.9066 15.898ZM6.96476 18.2631L8.10196 14.0934L6.17243 13.5672L5.03524 17.7369L6.96476 18.2631ZM7.8443 14.5374L15.0465 7.33516L13.6323 5.92095L6.43009 13.1232L7.8443 14.5374ZM12 9L15 12L16.4142 10.5858L13.4142 7.58579L12 9Z" fill="currentColor"/>
</svg>
