<svg width="24" height="24" viewBox="0 0 24 24" fill="none" xmlns="http://www.w3.org/2000/svg">
<path d="M11.997 19C11.4468 19 11.0008 18.5512 11.0008 17.9976L10.9998 6.00241C10.9998 5.4488 11.4458 5 11.996 5C12.5462 5 12.9921 5.4488 12.9921 6.00241L12.9931 17.9976C12.9931 18.5512 12.5471 19 11.997 19Z" fill="currentColor"/>
<path d="M19 12.0086C19 11.455 18.554 11.0062 18.0038 11.0062L5.99616 11.0062C5.44599 11.0062 5 11.455 5 12.0086C5 12.5622 5.446 13.011 5.99616 13.011L18.0038 13.011C18.554 13.011 19 12.5622 19 12.0086Z" fill="currentColor"/>
</svg>
