<svg width="24" height="24" viewBox="0 0 24 24" fill="none" xmlns="http://www.w3.org/2000/svg">
<path d="M6 7C5.44772 7 5 7.44772 5 8C5 8.55228 5.44772 9 6 9V7ZM17 9C17.5523 9 18 8.55228 18 8C18 7.44772 17.5523 7 17 7V9ZM7.92846 7.6C7.92846 8.15228 8.37618 8.6 8.92846 8.6C9.48075 8.6 9.92846 8.15228 9.92846 7.6H7.92846ZM10.2142 5V4V5ZM12.7856 5V4V5ZM13.0713 7.6C13.0713 8.15228 13.519 8.6 14.0713 8.6C14.6236 8.6 15.0713 8.15228 15.0713 7.6H13.0713ZM11 11C11 10.4477 10.5523 10 10 10C9.44772 10 9 10.4477 9 11H11ZM9 15C9 15.5523 9.44772 16 10 16C10.5523 16 11 15.5523 11 15H9ZM14 11C14 10.4477 13.5523 10 13 10C12.4477 10 12 10.4477 12 11H14ZM12 15C12 15.5523 12.4477 16 13 16C13.5523 16 14 15.5523 14 15H12ZM6 9H17V7H6V9ZM9.92846 7.6V6.3H7.92846V7.6H9.92846ZM9.92846 6.3C9.92846 6.21689 9.96122 6.13938 10.016 6.08395L8.59404 4.67757C8.16663 5.10973 7.92846 5.69355 7.92846 6.3H9.92846ZM10.016 6.08395C10.0705 6.02889 10.142 6 10.2142 6V4C9.60438 4 9.02182 4.24504 8.59404 4.67757L10.016 6.08395ZM10.2142 6H12.7856V4H10.2142V6ZM12.7856 6C12.8578 6 12.9293 6.02889 12.9837 6.08395L14.4057 4.67757C13.978 4.24504 13.3954 4 12.7856 4V6ZM12.9837 6.08395C13.0386 6.13938 13.0713 6.21689 13.0713 6.3H15.0713C15.0713 5.69355 14.8332 5.10973 14.4057 4.67757L12.9837 6.08395ZM13.0713 6.3V7.6H15.0713V6.3H13.0713ZM9 11V15H11V11H9ZM12 11V15H14V11H12ZM15 8V16H17V8H15ZM14 17H9V19H14V17ZM8 16V8H6V16H8ZM9 17C8.44772 17 8 16.5523 8 16H6C6 17.6569 7.34315 19 9 19V17ZM15 16C15 16.5523 14.5523 17 14 17V19C15.6569 19 17 17.6569 17 16H15Z" fill="currentColor"/>
</svg>
